<?xml version="1.0" standalone="no"?><!DOCTYPE svg PUBLIC "-//W3C//DTD SVG 1.1//EN" "http://www.w3.org/Graphics/SVG/1.1/DTD/svg11.dtd"><svg t="1574269312639" class="icon" viewBox="0 0 1024 1024" version="1.1" xmlns="http://www.w3.org/2000/svg" p-id="17511" xmlns:xlink="http://www.w3.org/1999/xlink" width="48" height="48"><defs><style type="text/css"></style></defs><path d="M597.333333 597.333333h85.333334v-85.333333h85.333333v128h-85.333333v42.666667h-85.333334v-42.666667h-85.333333v-128h85.333333v85.333333z m-384-85.333333h256v256H213.333333v-256z m85.333334 85.333333v85.333334h85.333333v-85.333334H298.666667zM213.333333 213.333333h256v256H213.333333V213.333333z m85.333334 85.333334v85.333333h85.333333V298.666667H298.666667z m213.333333-85.333334h256v256h-256V213.333333z m85.333333 85.333334v85.333333h85.333334V298.666667h-85.333334z m85.333334 384h85.333333v85.333333h-85.333333v-85.333333z m-170.666667 0h85.333333v85.333333h-85.333333v-85.333333z" fill="#000000" p-id="17512"></path></svg>