<?xml version="1.0" standalone="no"?><!DOCTYPE svg PUBLIC "-//W3C//DTD SVG 1.1//EN" "http://www.w3.org/Graphics/SVG/1.1/DTD/svg11.dtd"><svg t="1574442545572" class="icon" viewBox="0 0 1024 1024" version="1.1" xmlns="http://www.w3.org/2000/svg" p-id="3070" xmlns:xlink="http://www.w3.org/1999/xlink" width="48" height="48"><defs><style type="text/css"></style></defs><path d="M594.520947 314.862107l0-0.310062-0.344854 0L594.520947 314.862107 594.520947 314.862107zM512.558214 195.302081c-12.170181 0-24.15105 0.724501-35.906791 2.102894-28.855188 3.240811-56.521295 10.44591-82.516342 20.857027 0 0 214.366276 211.400734 220.088604 219.243353L614.223684 212.091466c-6.39464-2.172479-12.928451-4.119831-19.512403-5.930059C568.527946 199.129246 540.981566 195.302081 512.558214 195.302081L512.558214 195.302081 512.558214 195.302081zM594.520947 314.862107l-0.344854-0.310062 0.344854 0L594.520947 314.862107 594.520947 314.862107 594.520947 314.862107zM709.582519 429.42226l0.189312-0.2415-0.189312-0.2415L709.582519 429.42226 709.582519 429.42226zM736.490356 287.110043c-8.601912-8.549723-17.599843-16.479323-26.907836-23.805172-22.73684-17.995863-47.368844-32.458249-73.121368-43.352367 0 0 1.567705 300.415071 0 309.998333l160.015414-159.39529c-3.000334-6.016017-6.222725-12.014638-9.635451-17.875113C773.27412 329.254909 756.571716 307.105447 736.490356 287.110043L736.490356 287.110043 736.490356 287.110043zM709.582519 429.42226l0-0.483001 0.224104 0.2415L709.582519 429.42226 709.582519 429.42226 709.582519 429.42226zM710.134081 595.21219l0-0.327458-0.327458 0.327458L710.134081 595.21219 710.134081 595.21219zM806.715767 395.567197c0 0-212.073046 213.573213-220.020042 219.261773l226.25914 0c2.172479-6.377244 4.137227-12.858866 5.930059-19.426445 7.066953-26.15059 10.92891-53.524031 10.92891-81.861426 0-12.117992-0.75827-24.064069-2.15406-35.785018C824.401568 449.004247 817.213865 421.441495 806.715767 395.567197L806.715767 395.567197 806.715767 395.567197zM710.134081 595.21219l-0.327458 0 0.327458-0.327458L710.134081 595.21219 710.134081 595.21219 710.134081 595.21219zM593.5222 711.394283l-0.465604 0 0.224104 0.239454L593.5222 711.394283 593.5222 711.394283zM492.097206 638.58093 652.095223 797.977243c6.101975-3.015683 12.048407-6.187933 17.978467-9.601682 23.494087-13.462616 45.679365-30.131251 65.811892-50.160423 8.567119-8.549723 16.479323-17.547655 23.873734-26.821879 18.030655-22.650883 32.578999-47.162136 43.50791-72.847122C803.268248 638.547161 501.74903 640.098493 492.097206 638.58093L492.097206 638.58093 492.097206 638.58093zM593.5222 711.394283l-0.2415 0.239454-0.224104-0.239454L593.5222 711.394283 593.5222 711.394283 593.5222 711.394283zM429.679621 711.49559l0.327458 0-0.327458-0.343831L429.679621 711.49559 429.679621 711.49559zM409.99428 588.489068l0 225.448682c6.412037 2.15406 12.944823 4.155646 19.495006 5.913687 26.218128 7.031137 53.712319 10.893094 82.154092 10.893094 12.135388 0 24.115234-0.757247 35.871999-2.118244 28.855188-3.294023 56.504922-10.428513 82.497922-20.910239C630.048091 807.717072 415.699212 596.402295 409.99428 588.489068L409.99428 588.489068 409.99428 588.489068zM429.679621 711.49559l0-0.3776 0.36225 0.3776L429.679621 711.49559 429.679621 711.49559 429.679621 711.49559zM314.377572 595.556021l0-0.481977-0.240477 0.2415L314.377572 595.556021 314.377572 595.556021zM387.465171 494.476905 227.518319 653.871171c2.99931 6.104021 6.240121 12.06785 9.635451 17.909905 13.513782 23.477714 30.234605 45.577035 50.350758 65.60723 8.567119 8.566096 17.59882 16.442484 26.907836 23.785729 22.753213 18.031679 47.316655 32.475646 73.138764 43.352367C387.551128 804.526403 385.931235 504.09496 387.465171 494.476905L387.465171 494.476905 387.465171 494.476905zM314.377572 595.556021l-0.240477-0.239454 0.240477-0.2415L314.377572 595.556021 314.377572 595.556021 314.377572 595.556021zM314.050114 430.956196l0 0.257873 0.292666-0.257873L314.050114 430.956196 314.050114 430.956196zM205.264479 430.766884c-7.033184 26.114774-10.894118 53.505611-10.894118 81.843006 0 12.100596 0.75827 24.064069 2.136663 35.786041 3.275603 28.768207 10.428513 56.331983 20.9788 82.187861 0 0 212.05565-213.59061 220.001623-219.261773L211.210911 411.32202C209.022059 417.666518 207.073684 424.216701 205.264479 430.766884L205.264479 430.766884 205.264479 430.766884zM314.050114 430.956196l0.292666 0-0.292666 0.257873L314.050114 430.956196 314.050114 430.956196 314.050114 430.956196zM429.334767 315.620377l-0.224104 0.2415 0.483001 0L429.334767 315.620377 429.334767 315.620377zM352.576569 238.862179c-23.547299 13.496385-45.730531 30.147624-65.796542 50.14405-8.653077 8.600889-16.530488 17.59882-23.907503 26.820855-18.064424 22.649859-32.578999 47.196928-43.542702 72.91466 0 0 301.587779-1.602498 311.205834-0.068562L370.555036 229.260497C364.470457 232.2946 358.45444 235.465826 352.576569 238.862179L352.576569 238.862179 352.576569 238.862179zM429.334767 315.620377l0.258896 0.2415-0.483001 0L429.334767 315.620377 429.334767 315.620377 429.334767 315.620377zM429.334767 315.620377" p-id="3071" fill="#000000"></path></svg>