<?xml version="1.0" standalone="no"?><!DOCTYPE svg PUBLIC "-//W3C//DTD SVG 1.1//EN" "http://www.w3.org/Graphics/SVG/1.1/DTD/svg11.dtd"><svg t="1574269324715" class="icon" viewBox="0 0 1024 1024" version="1.1" xmlns="http://www.w3.org/2000/svg" p-id="17735" xmlns:xlink="http://www.w3.org/1999/xlink" width="48" height="48"><defs><style type="text/css"></style></defs><path d="M546.133333 520.533333l59.733334-59.733333 21.333333 21.333333 115.2-115.2-119.466667-119.466666-115.2 115.2 4.266667 8.533333-59.733333 59.733333L384 358.4 614.4 128l243.2 243.2-230.4 230.4-81.066667-81.066667z m-115.2-68.266666L371.2 512l-8.533333-8.533333-115.2 115.2 119.466666 119.466666 115.2-115.2-21.333333-21.333333 59.733333-59.733333 81.066667 81.066666L371.2 853.333333 128 614.4 358.4 384l72.533333 68.266667zM571.733333 341.333333l59.733334 59.733334-230.4 230.4L341.333333 571.733333 571.733333 341.333333z" fill="#000000" p-id="17736"></path></svg>