<?xml version="1.0" standalone="no"?><!DOCTYPE svg PUBLIC "-//W3C//DTD SVG 1.1//EN" "http://www.w3.org/Graphics/SVG/1.1/DTD/svg11.dtd"><svg t="1574269114853" class="icon" viewBox="0 0 1024 1024" version="1.1" xmlns="http://www.w3.org/2000/svg" p-id="14909" xmlns:xlink="http://www.w3.org/1999/xlink" width="48" height="48"><defs><style type="text/css"></style></defs><path d="M473.6 460.8l-81.066667 25.6c-4.266667-12.8-8.533333-25.6-8.533333-38.4C384 388.266667 430.933333 341.333333 490.666667 341.333333h42.666666c59.733333 0 106.666667 46.933333 106.666667 106.666667 0 51.2-38.4 93.866667-85.333333 102.4v4.266667h-85.333334v-85.333334h64c12.8 0 21.333333-8.533333 21.333334-21.333333s-8.533333-21.333333-21.333334-21.333333h-42.666666c-12.8 0-21.333333 8.533333-21.333334 21.333333 0 4.266667 0 8.533333 4.266667 12.8zM512 853.333333c-187.733333 0-341.333333-153.6-341.333333-341.333333s153.6-341.333333 341.333333-341.333333 341.333333 153.6 341.333333 341.333333-153.6 341.333333-341.333333 341.333333z m0-85.333333c140.8 0 256-115.2 256-256s-115.2-256-256-256-256 115.2-256 256 115.2 256 256 256z m-42.666667-170.666667h85.333334v85.333334h-85.333334v-85.333334z" fill="#000000" p-id="14910"></path></svg>