<?xml version="1.0" standalone="no"?><!DOCTYPE svg PUBLIC "-//W3C//DTD SVG 1.1//EN" "http://www.w3.org/Graphics/SVG/1.1/DTD/svg11.dtd"><svg t="1574269347910" class="icon" viewBox="0 0 1024 1024" version="1.1" xmlns="http://www.w3.org/2000/svg" p-id="17959" xmlns:xlink="http://www.w3.org/1999/xlink" width="48" height="48"><defs><style type="text/css"></style></defs><path d="M674.133333 878.933333l-98.133333-102.4c128-17.066667 230.4-123.733333 230.4-251.733333 0-123.733333-93.866667-230.4-217.6-251.733333l-89.6-89.6h38.4c196.266667 0 354.133333 153.6 354.133333 341.333333 0 128-76.8 243.2-183.466666 298.666667v85.333333l-34.133334-29.866667z m-93.866666-17.066666c-12.8 0-29.866667 4.266667-46.933334 4.266666-196.266667 0-354.133333-153.6-354.133333-341.333333 0-128 76.8-243.2 183.466667-298.666667V128l55.466666 55.466667 85.333334 85.333333c-132.266667 12.8-234.666667 123.733333-234.666667 256 0 128 98.133333 234.666667 226.133333 251.733333l85.333334 85.333334z" fill="#ffffff" p-id="17960"></path></svg>