<?xml version="1.0" standalone="no"?><!DOCTYPE svg PUBLIC "-//W3C//DTD SVG 1.1//EN" "http://www.w3.org/Graphics/SVG/1.1/DTD/svg11.dtd"><svg t="1574915170588" class="icon" viewBox="0 0 1024 1024" version="1.1" xmlns="http://www.w3.org/2000/svg" p-id="8744" xmlns:xlink="http://www.w3.org/1999/xlink" width="48" height="48"><defs><style type="text/css"></style></defs><path d="M512 896c-200.533333-145.066667-298.666667-285.866667-298.666667-426.666667 0-166.4 132.266667-298.666667 298.666667-298.666666s298.666667 132.266667 298.666667 298.666666c0 140.8-98.133333 281.6-298.666667 426.666667z m0-119.466667c140.8-106.666667 213.333333-209.066667 213.333333-307.2 0-119.466667-93.866667-213.333333-213.333333-213.333333s-213.333333 93.866667-213.333333 213.333333c0 98.133333 72.533333 200.533333 213.333333 307.2z m0-179.2c-72.533333 0-128-55.466667-128-128s55.466667-128 128-128 128 55.466667 128 128-55.466667 128-128 128z m0-85.333333c25.6 0 42.666667-17.066667 42.666667-42.666667s-17.066667-42.666667-42.666667-42.666666-42.666667 17.066667-42.666667 42.666666 17.066667 42.666667 42.666667 42.666667z" fill="#d81e06" p-id="8745"></path></svg>